# xmcd
# Track frame offsets:
# 150
# 14498
# 28005
# 38084
# 51940
# 63598
# 74305
# 86458
# 100482
# 112230
# 123650
# 130174
# 143174
#
# Disc length: 2077 seconds
# Revision: 0
# Processed by: cddbd v1.5.1PL0 Copyright (c) Steve Scherf et al.
# Submitted via: VisiTrax 2.9.10.228 - For more info visit www.synapsa.com
#
DISCID=c0081b0d
DTITLE=Charlie Waller and The Country Gentlemen - Songs of The American Spiri
DTITLE=t
DYEAR=2004
DGENRE=Bluegrass
TTITLE0=Fighting Side of Me
TTITLE1=Be Quiet When Willie Walks By
TTITLE2=Between Fire and Water
TTITLE3=Crying In The Chapel
TTITLE4=Joe
TTITLE5=A Miner's Life
TTITLE6=Blackberry Blossom
TTITLE7=There's A Star Spangled Banner Waving Somewhere
TTITLE8=My Heart Is On The Mend
TTITLE9=River of Tears
TTITLE10=Stay In The Wagon Yard
TTITLE11=The Vision
TTITLE12=Let Me Fly Low
EXTD=Pincastle Records - Orlando, FL - PRC-1138
EXTT0=
EXTT1=
EXTT2=
EXTT3=
EXTT4=
EXTT5=
EXTT6=
EXTT7=
EXTT8=
EXTT9=
EXTT10=
EXTT11=
EXTT12=
PLAYORDER=
